solid OpenSCAD_Model
  facet normal 0 1 0
    outer loop
      vertex -1.21466 57.5 1
      vertex -6.69131 57.5 7.43145
      vertex -5.44898 57.5 8.33405
    endloop
  endfacet
  facet normal 0 1 0
    outer loop
      vertex -6.69131 57.5 7.43145
      vertex -1.21466 57.5 1
      vertex -8.09017 57.5 5.87785
    endloop
  endfacet
  facet normal 0 1 0
    outer loop
      vertex -8.09017 57.5 5.87785
      vertex -1.21466 57.5 1
      vertex -9.13545 57.5 4.06737
    endloop
  endfacet
  facet normal 0 1 0
    outer loop
      vertex -9.13545 57.5 4.06737
      vertex -1.21466 57.5 1
      vertex -9.78148 57.5 2.07912
    endloop
  endfacet
  facet normal 0 1 0
    outer loop
      vertex -9.78148 57.5 2.07912
      vertex -1.21466 57.5 1
      vertex -9.8949 57.5 1
    endloop
  endfacet
  facet normal 0 -1 0
    outer loop
      vertex -1.21466 52.5 1
      vertex -6.69131 52.5 7.43145
      vertex -8.09017 52.5 5.87785
    endloop
  endfacet
  facet normal 0 -1 0
    outer loop
      vertex -1.21466 52.5 1
      vertex -8.09017 52.5 5.87785
      vertex -9.13545 52.5 4.06737
    endloop
  endfacet
  facet normal 0 -1 0
    outer loop
      vertex -1.21466 52.5 1
      vertex -9.13545 52.5 4.06737
      vertex -9.78148 52.5 2.07912
    endloop
  endfacet
  facet normal 0 -1 0
    outer loop
      vertex -1.21466 52.5 1
      vertex -9.78148 52.5 2.07912
      vertex -9.8949 52.5 1
    endloop
  endfacet
  facet normal 0 -1 0
    outer loop
      vertex -6.69131 52.5 7.43145
      vertex -1.21466 52.5 1
      vertex -5.44898 52.5 8.33405
    endloop
  endfacet
  facet normal -0.866026 0 0.5
    outer loop
      vertex -9.13545 52.5 4.06737
      vertex -8.09017 57.5 5.87785
      vertex -9.13545 57.5 4.06737
    endloop
  endfacet
  facet normal -0.866026 0 0.5
    outer loop
      vertex -8.09017 57.5 5.87785
      vertex -9.13545 52.5 4.06737
      vertex -8.09017 52.5 5.87785
    endloop
  endfacet
  facet normal -0.743145 0 0.669131
    outer loop
      vertex -8.09017 52.5 5.87785
      vertex -6.69131 57.5 7.43145
      vertex -8.09017 57.5 5.87785
    endloop
  endfacet
  facet normal -0.743145 0 0.669131
    outer loop
      vertex -6.69131 57.5 7.43145
      vertex -8.09017 52.5 5.87785
      vertex -6.69131 52.5 7.43145
    endloop
  endfacet
  facet normal -0.951057 0 0.309017
    outer loop
      vertex -9.78148 52.5 2.07912
      vertex -9.13545 57.5 4.06737
      vertex -9.78148 57.5 2.07912
    endloop
  endfacet
  facet normal -0.951057 0 0.309017
    outer loop
      vertex -9.13545 57.5 4.06737
      vertex -9.78148 52.5 2.07912
      vertex -9.13545 52.5 4.06737
    endloop
  endfacet
  facet normal -0.994522 0 0.104529
    outer loop
      vertex -9.8949 52.5 1
      vertex -9.78148 57.5 2.07912
      vertex -9.8949 57.5 1
    endloop
  endfacet
  facet normal -0.994522 0 0.104529
    outer loop
      vertex -9.78148 57.5 2.07912
      vertex -9.8949 52.5 1
      vertex -9.78148 52.5 2.07912
    endloop
  endfacet
  facet normal -0.587785 0 0.809017
    outer loop
      vertex -6.69131 57.5 7.43145
      vertex -5.44898 52.5 8.33405
      vertex -5.44898 57.5 8.33405
    endloop
  endfacet
  facet normal -0.587785 0 0.809017
    outer loop
      vertex -5.44898 52.5 8.33405
      vertex -6.69131 57.5 7.43145
      vertex -6.69131 52.5 7.43145
    endloop
  endfacet
  facet normal 0 1 0
    outer loop
      vertex -1.21466 -52.5 1
      vertex -6.69131 -52.5 7.43145
      vertex -5.44898 -52.5 8.33405
    endloop
  endfacet
  facet normal 0 1 0
    outer loop
      vertex -6.69131 -52.5 7.43145
      vertex -1.21466 -52.5 1
      vertex -8.09017 -52.5 5.87785
    endloop
  endfacet
  facet normal 0 1 0
    outer loop
      vertex -8.09017 -52.5 5.87785
      vertex -1.21466 -52.5 1
      vertex -9.13545 -52.5 4.06737
    endloop
  endfacet
  facet normal 0 1 0
    outer loop
      vertex -9.13545 -52.5 4.06737
      vertex -1.21466 -52.5 1
      vertex -9.78148 -52.5 2.07912
    endloop
  endfacet
  facet normal 0 1 0
    outer loop
      vertex -9.78148 -52.5 2.07912
      vertex -1.21466 -52.5 1
      vertex -9.8949 -52.5 1
    endloop
  endfacet
  facet normal 0 -1 0
    outer loop
      vertex -0.637307 -57.5 0
      vertex -6.69131 -57.5 7.43145
      vertex -8.09017 -57.5 5.87785
    endloop
  endfacet
  facet normal 0 -1 0
    outer loop
      vertex -0.637307 -57.5 0
      vertex -8.09017 -57.5 5.87785
      vertex -9.13545 -57.5 4.06737
    endloop
  endfacet
  facet normal 0 -1 0
    outer loop
      vertex -0.637307 -57.5 0
      vertex -9.13545 -57.5 4.06737
      vertex -9.78148 -57.5 2.07912
    endloop
  endfacet
  facet normal 0 -1 0
    outer loop
      vertex -0.637307 -57.5 0
      vertex -9.78148 -57.5 2.07912
      vertex -10 -57.5 0
    endloop
  endfacet
  facet normal 0 -1 0
    outer loop
      vertex -6.69131 -57.5 7.43145
      vertex -0.637307 -57.5 0
      vertex -5.44898 -57.5 8.33405
    endloop
  endfacet
  facet normal -0.866026 0 0.5
    outer loop
      vertex -9.13545 -57.5 4.06737
      vertex -8.09017 -52.5 5.87785
      vertex -9.13545 -52.5 4.06737
    endloop
  endfacet
  facet normal -0.866026 0 0.5
    outer loop
      vertex -8.09017 -52.5 5.87785
      vertex -9.13545 -57.5 4.06737
      vertex -8.09017 -57.5 5.87785
    endloop
  endfacet
  facet normal -0.743145 0 0.669131
    outer loop
      vertex -8.09017 -57.5 5.87785
      vertex -6.69131 -52.5 7.43145
      vertex -8.09017 -52.5 5.87785
    endloop
  endfacet
  facet normal -0.743145 0 0.669131
    outer loop
      vertex -6.69131 -52.5 7.43145
      vertex -8.09017 -57.5 5.87785
      vertex -6.69131 -57.5 7.43145
    endloop
  endfacet
  facet normal -0.951057 0 0.309017
    outer loop
      vertex -9.78148 -57.5 2.07912
      vertex -9.13545 -52.5 4.06737
      vertex -9.78148 -52.5 2.07912
    endloop
  endfacet
  facet normal -0.951057 0 0.309017
    outer loop
      vertex -9.13545 -52.5 4.06737
      vertex -9.78148 -57.5 2.07912
      vertex -9.13545 -57.5 4.06737
    endloop
  endfacet
  facet normal -0.994522 0 0.104529
    outer loop
      vertex -9.8949 -57.5 1
      vertex -9.78148 -52.5 2.07912
      vertex -9.8949 -52.5 1
    endloop
  endfacet
  facet normal -0.994522 0 0.104529
    outer loop
      vertex -9.78148 -52.5 2.07912
      vertex -9.8949 -57.5 1
      vertex -9.78148 -57.5 2.07912
    endloop
  endfacet
  facet normal 0 -1 0
    outer loop
      vertex -9.78148 -57.5 2.07912
      vertex -9.8949 -57.5 1
      vertex -10 -57.5 0
    endloop
  endfacet
  facet normal -0.587785 0 0.809017
    outer loop
      vertex -6.69131 -52.5 7.43145
      vertex -5.44898 -57.5 8.33405
      vertex -5.44898 -52.5 8.33405
    endloop
  endfacet
  facet normal -0.587785 0 0.809017
    outer loop
      vertex -5.44898 -57.5 8.33405
      vertex -6.69131 -52.5 7.43145
      vertex -6.69131 -57.5 7.43145
    endloop
  endfacet
  facet normal -0 0 1
    outer loop
      vertex 2.63699 57.5 6.92875
      vertex 3.9962 52.5 6.92875
      vertex 3.9962 57.5 6.92875
    endloop
  endfacet
  facet normal 0 0 1
    outer loop
      vertex 3.9962 52.5 6.92875
      vertex 2.63699 57.5 6.92875
      vertex 2.63699 52.5 6.92875
    endloop
  endfacet
  facet normal 0 -1 0
    outer loop
      vertex 6.05996 52.5 1
      vertex 3.9962 52.5 6.92875
      vertex 2.63699 52.5 6.92875
    endloop
  endfacet
  facet normal 0 -1 0
    outer loop
      vertex 3.9962 52.5 6.92875
      vertex 6.05996 52.5 1
      vertex 5.9079 52.5 6.36742
    endloop
  endfacet
  facet normal 0 -1 0
    outer loop
      vertex 5.9079 52.5 6.36742
      vertex 6.05996 52.5 1
      vertex 7.58402 52.5 5.29025
    endloop
  endfacet
  facet normal 0 -1 -0
    outer loop
      vertex 7.58402 52.5 5.29025
      vertex 6.05996 52.5 1
      vertex 8.88877 52.5 3.78448
    endloop
  endfacet
  facet normal 0 -1 -0
    outer loop
      vertex 8.88877 52.5 3.78448
      vertex 6.05996 52.5 1
      vertex 9.71645 52.5 1.97213
    endloop
  endfacet
  facet normal 0 -1 -0
    outer loop
      vertex 9.71645 52.5 1.97213
      vertex 6.05996 52.5 1
      vertex 9.85622 52.5 1
    endloop
  endfacet
  facet normal 0 1 0
    outer loop
      vertex 6.05996 57.5 1
      vertex 3.9962 57.5 6.92875
      vertex 5.9079 57.5 6.36742
    endloop
  endfacet
  facet normal 0 1 -0
    outer loop
      vertex 6.05996 57.5 1
      vertex 5.9079 57.5 6.36742
      vertex 7.58402 57.5 5.29025
    endloop
  endfacet
  facet normal 0 1 0
    outer loop
      vertex 6.05996 57.5 1
      vertex 7.58402 57.5 5.29025
      vertex 8.88877 57.5 3.78448
    endloop
  endfacet
  facet normal 0 1 0
    outer loop
      vertex 6.05996 57.5 1
      vertex 8.88877 57.5 3.78448
      vertex 9.71645 57.5 1.97213
    endloop
  endfacet
  facet normal 0 1 0
    outer loop
      vertex 6.05996 57.5 1
      vertex 9.71645 57.5 1.97213
      vertex 9.85622 57.5 1
    endloop
  endfacet
  facet normal 0 1 0
    outer loop
      vertex 3.9962 57.5 6.92875
      vertex 6.05996 57.5 1
      vertex 2.63699 57.5 6.92875
    endloop
  endfacet
  facet normal 0.540641 0 0.841254
    outer loop
      vertex 5.9079 57.5 6.36742
      vertex 7.58402 52.5 5.29025
      vertex 7.58402 57.5 5.29025
    endloop
  endfacet
  facet normal 0.540641 0 0.841254
    outer loop
      vertex 7.58402 52.5 5.29025
      vertex 5.9079 57.5 6.36742
      vertex 5.9079 52.5 6.36742
    endloop
  endfacet
  facet normal 0.909632 -0 0.415415
    outer loop
      vertex 8.88877 52.5 3.78448
      vertex 9.71645 57.5 1.97213
      vertex 8.88877 57.5 3.78448
    endloop
  endfacet
  facet normal 0.909632 0 0.415415
    outer loop
      vertex 9.71645 57.5 1.97213
      vertex 8.88877 52.5 3.78448
      vertex 9.71645 52.5 1.97213
    endloop
  endfacet
  facet normal 1 0 0
    outer loop
      vertex 10 57.5 2.12933e-015
      vertex 10 55 5.55112e-016
      vertex 10 57.5 0
    endloop
  endfacet
  facet normal 0.989821 -0 0.142315
    outer loop
      vertex 9.71645 52.5 1.97213
      vertex 9.85622 57.5 1
      vertex 9.71645 57.5 1.97213
    endloop
  endfacet
  facet normal 0.989821 0 0.142315
    outer loop
      vertex 9.85622 57.5 1
      vertex 9.71645 52.5 1.97213
      vertex 9.85622 52.5 1
    endloop
  endfacet
  facet normal 0.75575 -0 0.654861
    outer loop
      vertex 7.58402 52.5 5.29025
      vertex 8.88877 57.5 3.78448
      vertex 7.58402 57.5 5.29025
    endloop
  endfacet
  facet normal 0.75575 0 0.654861
    outer loop
      vertex 8.88877 57.5 3.78448
      vertex 7.58402 52.5 5.29025
      vertex 8.88877 52.5 3.78448
    endloop
  endfacet
  facet normal 0.281733 0 0.959493
    outer loop
      vertex 3.9962 57.5 6.92875
      vertex 5.9079 52.5 6.36742
      vertex 5.9079 57.5 6.36742
    endloop
  endfacet
  facet normal 0.281733 0 0.959493
    outer loop
      vertex 5.9079 52.5 6.36742
      vertex 3.9962 57.5 6.92875
      vertex 3.9962 52.5 6.92875
    endloop
  endfacet
  facet normal -0 0 1
    outer loop
      vertex 2.63699 -52.5 6.92875
      vertex 3.9962 -57.5 6.92875
      vertex 3.9962 -52.5 6.92875
    endloop
  endfacet
  facet normal 0 0 1
    outer loop
      vertex 3.9962 -57.5 6.92875
      vertex 2.63699 -52.5 6.92875
      vertex 2.63699 -57.5 6.92875
    endloop
  endfacet
  facet normal 0 -1 0
    outer loop
      vertex 6.63731 -57.5 1.11022e-015
      vertex 3.9962 -57.5 6.92875
      vertex 2.63699 -57.5 6.92875
    endloop
  endfacet
  facet normal 0 -1 0
    outer loop
      vertex 3.9962 -57.5 6.92875
      vertex 6.63731 -57.5 1.11022e-015
      vertex 5.9079 -57.5 6.36742
    endloop
  endfacet
  facet normal 0 -1 0
    outer loop
      vertex 5.9079 -57.5 6.36742
      vertex 6.63731 -57.5 1.11022e-015
      vertex 7.58402 -57.5 5.29025
    endloop
  endfacet
  facet normal 0 -1 -0
    outer loop
      vertex 7.58402 -57.5 5.29025
      vertex 6.63731 -57.5 1.11022e-015
      vertex 8.88877 -57.5 3.78448
    endloop
  endfacet
  facet normal 0 -1 -0
    outer loop
      vertex 8.88877 -57.5 3.78448
      vertex 6.63731 -57.5 1.11022e-015
      vertex 9.71645 -57.5 1.97213
    endloop
  endfacet
  facet normal 0 -1 -0
    outer loop
      vertex 9.71645 -57.5 1.97213
      vertex 6.63731 -57.5 1.11022e-015
      vertex 10 -57.5 1.11022e-015
    endloop
  endfacet
  facet normal 0 1 0
    outer loop
      vertex 6.05996 -52.5 1
      vertex 3.9962 -52.5 6.92875
      vertex 5.9079 -52.5 6.36742
    endloop
  endfacet
  facet normal 0 1 -0
    outer loop
      vertex 6.05996 -52.5 1
      vertex 5.9079 -52.5 6.36742
      vertex 7.58402 -52.5 5.29025
    endloop
  endfacet
  facet normal 0 1 0
    outer loop
      vertex 6.05996 -52.5 1
      vertex 7.58402 -52.5 5.29025
      vertex 8.88877 -52.5 3.78448
    endloop
  endfacet
  facet normal 0 1 0
    outer loop
      vertex 6.05996 -52.5 1
      vertex 8.88877 -52.5 3.78448
      vertex 9.71645 -52.5 1.97213
    endloop
  endfacet
  facet normal 0 1 0
    outer loop
      vertex 6.05996 -52.5 1
      vertex 9.71645 -52.5 1.97213
      vertex 9.85622 -52.5 1
    endloop
  endfacet
  facet normal 0 1 0
    outer loop
      vertex 3.9962 -52.5 6.92875
      vertex 6.05996 -52.5 1
      vertex 2.63699 -52.5 6.92875
    endloop
  endfacet
  facet normal 0.540641 0 0.841254
    outer loop
      vertex 5.9079 -52.5 6.36742
      vertex 7.58402 -57.5 5.29025
      vertex 7.58402 -52.5 5.29025
    endloop
  endfacet
  facet normal 0.540641 0 0.841254
    outer loop
      vertex 7.58402 -57.5 5.29025
      vertex 5.9079 -52.5 6.36742
      vertex 5.9079 -57.5 6.36742
    endloop
  endfacet
  facet normal 0.909632 -0 0.415415
    outer loop
      vertex 8.88877 -57.5 3.78448
      vertex 9.71645 -52.5 1.97213
      vertex 8.88877 -52.5 3.78448
    endloop
  endfacet
  facet normal 0.909632 0 0.415415
    outer loop
      vertex 9.71645 -52.5 1.97213
      vertex 8.88877 -57.5 3.78448
      vertex 9.71645 -57.5 1.97213
    endloop
  endfacet
  facet normal 1 0 0
    outer loop
      vertex 10 -52.5 2.12933e-015
      vertex 10 -55 5.55112e-016
      vertex 10 -52.5 0
    endloop
  endfacet
  facet normal 0.989821 -0 0.142315
    outer loop
      vertex 9.71645 -57.5 1.97213
      vertex 9.85622 -52.5 1
      vertex 9.71645 -52.5 1.97213
    endloop
  endfacet
  facet normal 0.989821 0 0.142315
    outer loop
      vertex 9.85622 -52.5 1
      vertex 9.71645 -57.5 1.97213
      vertex 9.85622 -57.5 1
    endloop
  endfacet
  facet normal -0 1 -0
    outer loop
      vertex 9.85622 -57.5 1
      vertex 9.71645 -57.5 1.97213
      vertex 10 -57.5 1.11022e-015
    endloop
  endfacet
  facet normal 0.75575 -0 0.654861
    outer loop
      vertex 7.58402 -57.5 5.29025
      vertex 8.88877 -52.5 3.78448
      vertex 7.58402 -52.5 5.29025
    endloop
  endfacet
  facet normal 0.75575 0 0.654861
    outer loop
      vertex 8.88877 -52.5 3.78448
      vertex 7.58402 -57.5 5.29025
      vertex 8.88877 -57.5 3.78448
    endloop
  endfacet
  facet normal 0.281733 0 0.959493
    outer loop
      vertex 3.9962 -52.5 6.92875
      vertex 5.9079 -57.5 6.36742
      vertex 5.9079 -52.5 6.36742
    endloop
  endfacet
  facet normal 0.281733 0 0.959493
    outer loop
      vertex 5.9079 -57.5 6.36742
      vertex 3.9962 -52.5 6.92875
      vertex 3.9962 -57.5 6.92875
    endloop
  endfacet
  facet normal -0.866025 0 -0.5
    outer loop
      vertex 6.05996 -57.5 1
      vertex 2.63699 -52.5 6.92875
      vertex 6.05996 -52.5 1
    endloop
  endfacet
  facet normal -0.866025 -0 -0.5
    outer loop
      vertex 2.63699 -52.5 6.92875
      vertex 6.05996 -57.5 1
      vertex 2.63699 -57.5 6.92875
    endloop
  endfacet
  facet normal 0 1 0
    outer loop
      vertex 2.63699 -57.5 6.92875
      vertex 6.05996 -57.5 1
      vertex 6.63731 -57.5 1.11022e-015
    endloop
  endfacet
  facet normal -0.866025 0 -0.5
    outer loop
      vertex 6.05996 52.5 1
      vertex 2.63699 57.5 6.92875
      vertex 6.05996 57.5 1
    endloop
  endfacet
  facet normal -0.866025 -0 -0.5
    outer loop
      vertex 2.63699 57.5 6.92875
      vertex 6.05996 52.5 1
      vertex 2.63699 52.5 6.92875
    endloop
  endfacet
  facet normal 0.866025 -0 0.5
    outer loop
      vertex -5.44898 -57.5 8.33405
      vertex -1.21466 -52.5 1
      vertex -5.44898 -52.5 8.33405
    endloop
  endfacet
  facet normal 0.866025 0 0.5
    outer loop
      vertex -1.21466 -52.5 1
      vertex -5.44898 -57.5 8.33405
      vertex -1.21466 -57.5 1
    endloop
  endfacet
  facet normal -0 -1 -0
    outer loop
      vertex -1.21466 -57.5 1
      vertex -5.44898 -57.5 8.33405
      vertex -0.637307 -57.5 0
    endloop
  endfacet
  facet normal 0.866025 -0 0.5
    outer loop
      vertex -5.44898 52.5 8.33405
      vertex -1.21466 57.5 1
      vertex -5.44898 57.5 8.33405
    endloop
  endfacet
  facet normal 0.866025 0 0.5
    outer loop
      vertex -1.21466 57.5 1
      vertex -5.44898 52.5 8.33405
      vertex -1.21466 52.5 1
    endloop
  endfacet
  facet normal -1 0 0
    outer loop
      vertex -10 -57.5 0
      vertex -10 57.5 1
      vertex -10 57.5 0
    endloop
  endfacet
  facet normal -1 -0 0
    outer loop
      vertex -10 57.5 1
      vertex -10 -57.5 0
      vertex -10 -57.5 1
    endloop
  endfacet
  facet normal -0 0 1
    outer loop
      vertex -10 57.5 1
      vertex -9.8949 52.5 1
      vertex -9.8949 57.5 1
    endloop
  endfacet
  facet normal 0 0 1
    outer loop
      vertex -9.8949 52.5 1
      vertex -10 57.5 1
      vertex -9.8949 -52.5 1
    endloop
  endfacet
  facet normal 0 0 1
    outer loop
      vertex -10 -57.5 1
      vertex -9.8949 -52.5 1
      vertex -10 57.5 1
    endloop
  endfacet
  facet normal 0 0 1
    outer loop
      vertex -9.8949 -52.5 1
      vertex -10 -57.5 1
      vertex -9.8949 -57.5 1
    endloop
  endfacet
  facet normal -0 0 1
    outer loop
      vertex -9.8949 52.5 1
      vertex -1.21466 -52.5 1
      vertex -1.21466 52.5 1
    endloop
  endfacet
  facet normal 0 0 1
    outer loop
      vertex -1.21466 -52.5 1
      vertex -9.8949 52.5 1
      vertex -9.8949 -52.5 1
    endloop
  endfacet
  facet normal 0 0 1
    outer loop
      vertex -1.21466 52.5 1
      vertex 6.05996 52.5 1
      vertex 6.05996 57.5 1
    endloop
  endfacet
  facet normal 0 0 1
    outer loop
      vertex 6.05996 52.5 1
      vertex -1.21466 52.5 1
      vertex 6.05996 -52.5 1
    endloop
  endfacet
  facet normal 0 0 1
    outer loop
      vertex -1.21466 52.5 1
      vertex 6.05996 57.5 1
      vertex -1.21466 57.5 1
    endloop
  endfacet
  facet normal 0 0 1
    outer loop
      vertex -1.21466 -52.5 1
      vertex 6.05996 -52.5 1
      vertex -1.21466 52.5 1
    endloop
  endfacet
  facet normal 0 0 1
    outer loop
      vertex 6.05996 -52.5 1
      vertex -1.21466 -52.5 1
      vertex 6.05996 -57.5 1
    endloop
  endfacet
  facet normal 0 0 1
    outer loop
      vertex 6.05996 -57.5 1
      vertex -1.21466 -52.5 1
      vertex -1.21466 -57.5 1
    endloop
  endfacet
  facet normal -0 0 1
    outer loop
      vertex 6.05996 52.5 1
      vertex 9.85622 -52.5 1
      vertex 9.85622 52.5 1
    endloop
  endfacet
  facet normal 0 0 1
    outer loop
      vertex 9.85622 -52.5 1
      vertex 6.05996 52.5 1
      vertex 6.05996 -52.5 1
    endloop
  endfacet
  facet normal 0 0 1
    outer loop
      vertex 9.85622 52.5 1
      vertex 10 57.5 1
      vertex 9.85622 57.5 1
    endloop
  endfacet
  facet normal 0 0 1
    outer loop
      vertex 10 57.5 1
      vertex 9.85622 52.5 1
      vertex 10 -57.5 1
    endloop
  endfacet
  facet normal -0 0 1
    outer loop
      vertex 9.85622 -52.5 1
      vertex 10 -57.5 1
      vertex 9.85622 52.5 1
    endloop
  endfacet
  facet normal 0 0 1
    outer loop
      vertex 10 -57.5 1
      vertex 9.85622 -52.5 1
      vertex 9.85622 -57.5 1
    endloop
  endfacet
  facet normal 0 0 0
    outer loop
      vertex -10 57.5 1
      vertex -9.8949 57.5 1
      vertex -1.21466 57.5 1
    endloop
  endfacet
  facet normal 0 0 0
    outer loop
      vertex 9.85622 57.5 1
      vertex 10 57.5 1
      vertex -10 57.5 1
    endloop
  endfacet
  facet normal 0 0 0
    outer loop
      vertex 9.85622 57.5 1
      vertex -10 57.5 1
      vertex -1.21466 57.5 1
    endloop
  endfacet
  facet normal 0 0 0
    outer loop
      vertex -1.21466 57.5 1
      vertex 6.05996 57.5 1
      vertex 9.85622 57.5 1
    endloop
  endfacet
  facet normal 1 0 0
    outer loop
      vertex 10 57.5 1
      vertex 10 55 5.55112e-016
      vertex 10 57.5 2.12933e-015
    endloop
  endfacet
  facet normal 1 0 0
    outer loop
      vertex 10 57.5 1
      vertex 10 -52.5 2.12933e-015
      vertex 10 55 5.55112e-016
    endloop
  endfacet
  facet normal 1 -0 0
    outer loop
      vertex 10 -57.5 1
      vertex 10 -52.5 2.12933e-015
      vertex 10 57.5 1
    endloop
  endfacet
  facet normal 1 0 0
    outer loop
      vertex 10 -52.5 2.12933e-015
      vertex 10 -57.5 1
      vertex 10 -55 5.55112e-016
    endloop
  endfacet
  facet normal 1 0 0
    outer loop
      vertex 10 -52.5 0
      vertex 10 55 5.55112e-016
      vertex 10 -52.5 2.12933e-015
    endloop
  endfacet
  facet normal 1 0 0
    outer loop
      vertex 10 55 5.55112e-016
      vertex 10 -52.5 0
      vertex 10 57.5 0
    endloop
  endfacet
  facet normal 1 0 0
    outer loop
      vertex 10 -55 5.55112e-016
      vertex 10 -57.5 0
      vertex 10 -52.5 0
    endloop
  endfacet
  facet normal 1 0 0
    outer loop
      vertex 10 -57.5 0
      vertex 10 -55 5.55112e-016
      vertex 10 -57.5 1
    endloop
  endfacet
  facet normal 0 0 0
    outer loop
      vertex 10 57.5 2.12933e-015
      vertex 10 57.5 0
      vertex 10 57.5 1
    endloop
  endfacet
  facet normal 0 0 -1
    outer loop
      vertex -0.637307 -57.5 0
      vertex 10 -52.5 0
      vertex 10 -57.5 0
    endloop
  endfacet
  facet normal 0 0 -1
    outer loop
      vertex -10 -57.5 0
      vertex 10 -52.5 0
      vertex -0.637307 -57.5 0
    endloop
  endfacet
  facet normal -0 0 -1
    outer loop
      vertex 10 -52.5 0
      vertex -10 -57.5 0
      vertex -10 57.5 0
    endloop
  endfacet
  facet normal 0 0 -1
    outer loop
      vertex 10 -52.5 0
      vertex -10 57.5 0
      vertex 10 57.5 0
    endloop
  endfacet
  facet normal 0 -1 0
    outer loop
      vertex -10 -57.5 1
      vertex -10 -57.5 0
      vertex -9.8949 -57.5 1
    endloop
  endfacet
  facet normal 0 -1 0
    outer loop
      vertex -0.637307 -57.5 0
      vertex 6.05996 -57.5 1
      vertex -1.21466 -57.5 1
    endloop
  endfacet
  facet normal 0 -1 -0
    outer loop
      vertex 6.05996 -57.5 1
      vertex -0.637307 -57.5 0
      vertex 6.63731 -57.5 1.11022e-015
    endloop
  endfacet
  facet normal 0 -1 0
    outer loop
      vertex 10 -57.5 0
      vertex 6.63731 -57.5 1.11022e-015
      vertex -0.637307 -57.5 0
    endloop
  endfacet
  facet normal 0 -1 0
    outer loop
      vertex 6.63731 -57.5 1.11022e-015
      vertex 10 -57.5 0
      vertex 10 -57.5 1.11022e-015
    endloop
  endfacet
  facet normal 0 -1 0
    outer loop
      vertex 9.85622 -57.5 1
      vertex 10 -57.5 1.11022e-015
      vertex 10 -57.5 1
    endloop
  endfacet
  facet normal 0 0 0
    outer loop
      vertex 10 -57.5 1.11022e-015
      vertex 10 -57.5 0
      vertex 10 -57.5 1
    endloop
  endfacet
  facet normal 0 1 -0
    outer loop
      vertex 10 57.5 0
      vertex -10 57.5 1
      vertex 10 57.5 1
    endloop
  endfacet
  facet normal 0 1 0
    outer loop
      vertex -10 57.5 1
      vertex 10 57.5 0
      vertex -10 57.5 0
    endloop
  endfacet
endsolid OpenSCAD_Model
