solid OpenSCAD_Model
  facet normal 0 0 -1
    outer loop
      vertex -1 -3.5 -4
      vertex -1.5 -2.5 -4
      vertex -1 3.5 -4
    endloop
  endfacet
  facet normal 0 0 -1
    outer loop
      vertex -1 -3.5 -4
      vertex -10 -2.5 -4
      vertex -1.5 -2.5 -4
    endloop
  endfacet
  facet normal -0 0 -1
    outer loop
      vertex -10 -2.5 -4
      vertex -11 -3.5 -4
      vertex -10 2.5 -4
    endloop
  endfacet
  facet normal 0 0 -1
    outer loop
      vertex -11 -3.5 -4
      vertex -10 -2.5 -4
      vertex -1 -3.5 -4
    endloop
  endfacet
  facet normal 0 0 -1
    outer loop
      vertex -1 -3.5 -4
      vertex -8.88178e-016 -7 -4
      vertex -1 -7 -4
    endloop
  endfacet
  facet normal 0 0 -1
    outer loop
      vertex -8.88178e-016 -7 -4
      vertex -1 -3.5 -4
      vertex -8.88178e-016 7 -4
    endloop
  endfacet
  facet normal 0 0 -1
    outer loop
      vertex -1 3.5 -4
      vertex -8.88178e-016 7 -4
      vertex -1 -3.5 -4
    endloop
  endfacet
  facet normal -0 0 -1
    outer loop
      vertex -8.88178e-016 7 -4
      vertex -1 3.5 -4
      vertex -1 7 -4
    endloop
  endfacet
  facet normal 0 0 -1
    outer loop
      vertex -1.5 2.5 -4
      vertex -1 3.5 -4
      vertex -1.5 -2.5 -4
    endloop
  endfacet
  facet normal 0 0 -1
    outer loop
      vertex -10 2.5 -4
      vertex -1 3.5 -4
      vertex -1.5 2.5 -4
    endloop
  endfacet
  facet normal 0 0 -1
    outer loop
      vertex -10 2.5 -4
      vertex -11 3.5 -4
      vertex -1 3.5 -4
    endloop
  endfacet
  facet normal 0 0 -1
    outer loop
      vertex -11 3.5 -4
      vertex -10 2.5 -4
      vertex -11 -3.5 -4
    endloop
  endfacet
  facet normal -1 0 0
    outer loop
      vertex -11 -3.5 -4
      vertex -11 3.5 2.44249e-015
      vertex -11 3.5 -4
    endloop
  endfacet
  facet normal -1 -0 0
    outer loop
      vertex -11 3.5 2.44249e-015
      vertex -11 -3.5 -4
      vertex -11 -3.5 2.44249e-015
    endloop
  endfacet
  facet normal 2.22045e-016 0 1
    outer loop
      vertex -1 3.5 2.22045e-016
      vertex -10 2.5 2.22045e-015
      vertex -1 2.5 2.22045e-016
    endloop
  endfacet
  facet normal 2.22045e-016 0 1
    outer loop
      vertex -10 2.5 2.22045e-015
      vertex -11 3.5 2.44249e-015
      vertex -10 -2.5 2.22045e-015
    endloop
  endfacet
  facet normal 2.22045e-016 0 1
    outer loop
      vertex -11 3.5 2.44249e-015
      vertex -10 2.5 2.22045e-015
      vertex -1 3.5 2.22045e-016
    endloop
  endfacet
  facet normal 2.22045e-016 0 1
    outer loop
      vertex -10 -2.5 2.22045e-015
      vertex -1 -3.5 2.22045e-016
      vertex -1 -2.5 2.22045e-016
    endloop
  endfacet
  facet normal 2.22045e-016 0 1
    outer loop
      vertex -10 -2.5 2.22045e-015
      vertex -11 -3.5 2.44249e-015
      vertex -1 -3.5 2.22045e-016
    endloop
  endfacet
  facet normal 2.22045e-016 -0 1
    outer loop
      vertex -11 -3.5 2.44249e-015
      vertex -10 -2.5 2.22045e-015
      vertex -11 3.5 2.44249e-015
    endloop
  endfacet
  facet normal 1 0 -2.22045e-016
    outer loop
      vertex 1.11022e-015 -7 5
      vertex -8.88178e-016 7 -4
      vertex 1.11022e-015 7 5
    endloop
  endfacet
  facet normal 1 0 -2.22045e-016
    outer loop
      vertex -8.88178e-016 7 -4
      vertex 1.11022e-015 -7 5
      vertex -8.88178e-016 -7 -4
    endloop
  endfacet
  facet normal 0 -1 0
    outer loop
      vertex -11 -3.5 -4
      vertex -1 -3.5 2.22045e-016
      vertex -11 -3.5 2.44249e-015
    endloop
  endfacet
  facet normal 0 -1 -0
    outer loop
      vertex -1 -3.5 2.22045e-016
      vertex -11 -3.5 -4
      vertex -1 -3.5 -4
    endloop
  endfacet
  facet normal 0 1 -0
    outer loop
      vertex -1 3.5 -4
      vertex -11 3.5 2.44249e-015
      vertex -1 3.5 2.22045e-016
    endloop
  endfacet
  facet normal 0 1 0
    outer loop
      vertex -11 3.5 2.44249e-015
      vertex -1 3.5 -4
      vertex -11 3.5 -4
    endloop
  endfacet
  facet normal 1 -0 0
    outer loop
      vertex -10 -2.5 2.22045e-015
      vertex -10 2.5 -4
      vertex -10 2.5 2.22045e-015
    endloop
  endfacet
  facet normal 1 0 0
    outer loop
      vertex -10 2.5 -4
      vertex -10 -2.5 2.22045e-015
      vertex -10 -2.5 -4
    endloop
  endfacet
  facet normal 0 -1 0
    outer loop
      vertex -10 2.5 2.22045e-015
      vertex -1.5 2.5 -3
      vertex -1 2.5 2.22045e-016
    endloop
  endfacet
  facet normal 0 -1 0
    outer loop
      vertex -10 2.5 -4
      vertex -1.5 2.5 -3
      vertex -10 2.5 2.22045e-015
    endloop
  endfacet
  facet normal 0 -1 -0
    outer loop
      vertex -1.5 2.5 -3
      vertex -10 2.5 -4
      vertex -1.5 2.5 -4
    endloop
  endfacet
  facet normal 0 -1 -0
    outer loop
      vertex -1 2.5 2.22045e-016
      vertex -1.5 2.5 -3
      vertex -1 2.5 -3
    endloop
  endfacet
  facet normal -1 0 0
    outer loop
      vertex -1 -3.5 -4
      vertex -1 -7 -4
      vertex -1 -3.5 2.22045e-016
    endloop
  endfacet
  facet normal -1 0 0
    outer loop
      vertex -1 2.5 -3
      vertex -1 -2.5 -3
      vertex -1 2.5 2.22045e-016
    endloop
  endfacet
  facet normal -1 0 0
    outer loop
      vertex -1 3.5 2.22045e-016
      vertex -1 7 -4
      vertex -1 3.5 -4
    endloop
  endfacet
  facet normal -1 0 0
    outer loop
      vertex -1 7 -4
      vertex -1 3.5 2.22045e-016
      vertex -1 7 5
    endloop
  endfacet
  facet normal -1 0 0
    outer loop
      vertex -1 2.5 2.22045e-016
      vertex -1 7 5
      vertex -1 3.5 2.22045e-016
    endloop
  endfacet
  facet normal -1 0 0
    outer loop
      vertex -1 -2.5 2.22045e-016
      vertex -1 2.5 2.22045e-016
      vertex -1 -2.5 -3
    endloop
  endfacet
  facet normal -1 0 0
    outer loop
      vertex -1 2.5 2.22045e-016
      vertex -1 -2.5 2.22045e-016
      vertex -1 7 5
    endloop
  endfacet
  facet normal -1 0 0
    outer loop
      vertex -1 -7 5
      vertex -1 -2.5 2.22045e-016
      vertex -1 -3.5 2.22045e-016
    endloop
  endfacet
  facet normal -1 0 0
    outer loop
      vertex -1 -2.5 2.22045e-016
      vertex -1 -7 5
      vertex -1 7 5
    endloop
  endfacet
  facet normal -1 0 0
    outer loop
      vertex -1 -7 5
      vertex -1 -3.5 2.22045e-016
      vertex -1 -7 -4
    endloop
  endfacet
  facet normal 0 1 0
    outer loop
      vertex -1.5 -2.5 -3
      vertex -1 -2.5 2.22045e-016
      vertex -1 -2.5 -3
    endloop
  endfacet
  facet normal 0 1 0
    outer loop
      vertex -1 -2.5 2.22045e-016
      vertex -1.5 -2.5 -3
      vertex -10 -2.5 2.22045e-015
    endloop
  endfacet
  facet normal 0 1 0
    outer loop
      vertex -10 -2.5 -4
      vertex -1.5 -2.5 -3
      vertex -1.5 -2.5 -4
    endloop
  endfacet
  facet normal 0 1 0
    outer loop
      vertex -1.5 -2.5 -3
      vertex -10 -2.5 -4
      vertex -10 -2.5 2.22045e-015
    endloop
  endfacet
  facet normal -0 0 1
    outer loop
      vertex -1 7 5
      vertex 1.11022e-015 -7 5
      vertex 1.11022e-015 7 5
    endloop
  endfacet
  facet normal 0 0 1
    outer loop
      vertex 1.11022e-015 -7 5
      vertex -1 7 5
      vertex -1 -7 5
    endloop
  endfacet
  facet normal 0 1 -0
    outer loop
      vertex -8.88178e-016 7 -4
      vertex -1 7 5
      vertex 1.11022e-015 7 5
    endloop
  endfacet
  facet normal 0 1 0
    outer loop
      vertex -1 7 5
      vertex -8.88178e-016 7 -4
      vertex -1 7 -4
    endloop
  endfacet
  facet normal 0 -1 0
    outer loop
      vertex -1 -7 -4
      vertex 1.11022e-015 -7 5
      vertex -1 -7 5
    endloop
  endfacet
  facet normal 0 -1 0
    outer loop
      vertex 1.11022e-015 -7 5
      vertex -1 -7 -4
      vertex -8.88178e-016 -7 -4
    endloop
  endfacet
  facet normal -1 0 0
    outer loop
      vertex -1.5 -2.5 -4
      vertex -1.5 2.5 -3
      vertex -1.5 2.5 -4
    endloop
  endfacet
  facet normal -1 -0 0
    outer loop
      vertex -1.5 2.5 -3
      vertex -1.5 -2.5 -4
      vertex -1.5 -2.5 -3
    endloop
  endfacet
  facet normal -0 0 1
    outer loop
      vertex -1.5 2.5 -3
      vertex -1 -2.5 -3
      vertex -1 2.5 -3
    endloop
  endfacet
  facet normal 0 0 1
    outer loop
      vertex -1 -2.5 -3
      vertex -1.5 2.5 -3
      vertex -1.5 -2.5 -3
    endloop
  endfacet
endsolid OpenSCAD_Model
